<?xml version="1.0" encoding="UTF-8"?>
<!DOCTYPE svg PUBLIC "-//W3C//DTD SVG 1.1//EN" "http://www.w3.org/Graphics/SVG/1.1/DTD/svg11.dtd">
<!-- Creator: CorelDRAW X8 -->
<svg xmlns="http://www.w3.org/2000/svg" xml:space="preserve" width="1999px" height="1301px" version="1.1" style="shape-rendering:geometricPrecision; text-rendering:geometricPrecision; image-rendering:optimizeQuality; fill-rule:evenodd; clip-rule:evenodd"
viewBox="0 0 199900 130095"
 xmlns:xlink="http://www.w3.org/1999/xlink">
 <defs>
  <style type="text/css">
   <![CDATA[
    .str0 {stroke:#333436;stroke-width:799.6}
    .str1 {stroke:#333436;stroke-width:799.6}
    .fil14 {fill:#FEFEFE}
    .fil12 {fill:#007F3A}
    .fil13 {fill:#007F3A}
    .fil16 {fill:#9C1A5C}
    .fil17 {fill:#FFD300}
    .fil18 {fill:#FFD300}
    .fil9 {fill:black;fill-rule:nonzero}
    .fil6 {fill:#007F3A;fill-rule:nonzero}
    .fil0 {fill:#00A0E3;fill-rule:nonzero}
    .fil10 {fill:#2F3D8A;fill-rule:nonzero}
    .fil15 {fill:#333436;fill-rule:nonzero}
    .fil1 {fill:#94CEBD;fill-rule:nonzero}
    .fil5 {fill:#9C1A5C;fill-rule:nonzero}
    .fil3 {fill:#A1A6A8;fill-rule:nonzero}
    .fil4 {fill:#E42D24;fill-rule:nonzero}
    .fil2 {fill:#EF7C22;fill-rule:nonzero}
    .fil8 {fill:#EF88A5;fill-rule:nonzero}
    .fil7 {fill:#FFD300;fill-rule:nonzero}
    .fil11 {fill:white;fill-rule:nonzero}
   ]]>
  </style>
 </defs>
 <g id="Layer_x0020_1">
  <metadata id="CorelCorpID_0Corel-Layer"/>
  <path class="fil0" d="M156156 70108l34635 0c395,0 980,127 1518,348 538,222 1044,538 1328,823l2578 2577 0 0c337,337 740,621 1186,859 -497,251 -958,558 -1328,928 -1044,1044 -6121,6121 -6121,6121l1060 1044c0,0 316,-317 807,-807 1470,-1471 4523,-4523 5313,-5314 285,-284 791,-601 1329,-822 490,-206 1028,-332 1423,-348l0 -48 0 -473c-470,23 -1090,179 -1629,394 -585,238 -1138,585 -1486,934 -522,521 -2056,2055 -3448,3447 -1392,1408 -2657,2673 -2657,2673l-348 -348c0,0 5077,-5077 6121,-6121 411,-411 1012,-774 1644,-1043 185,-78 372,-147 560,-205 -145,-48 -290,-102 -433,-159 -633,-269 -1234,-633 -1645,-1044l0 0 -2578 -2578c-348,-348 -901,-695 -1486,-933 -586,-253 -1218,-395 -1708,-395l-34635 0 0 474 0 16zm43728 4390l0 -468 0 -15 0 -32c-379,-32 -838,-158 -1281,-348 -538,-222 -1044,-538 -1328,-822l0 0 -2578 -2578c-490,-490 -1123,-870 -1819,-1155 -680,-284 -1407,-458 -2087,-474l-34635 0 0 538 34635 0c585,0 1265,158 1897,426 633,269 1234,633 1645,1044l2578 2578c348,348 901,696 1487,933 389,163 1292,336 1486,373z"/>
  <path class="fil1" d="M102860 114659l30001 0c680,0 1407,-190 2087,-475 680,-284 1329,-664 1819,-1154l0 0 13743 -13743 0 0c475,-491 870,-1123 1155,-1819 284,-680 458,-1408 474,-2088l0 -31550 -1487 0 0 31550c0,396 -126,981 -347,1519 -222,537 -538,1043 -823,1328l0 0 -13743 13743 0 0c-285,285 -791,601 -1328,823 -538,221 -1123,363 -1519,348l-30000 0 0 1486 -32 32z"/>
  <path class="fil2" d="M102164 130157l0 -37481c0,-680 -190,-1407 -474,-2088 -285,-680 -665,-1328 -1155,-1818l-27897 -27898c-285,-284 -601,-790 -823,-1328 -221,-538 -363,-1123 -348,-1518l0 -10865c0,-680 -189,-1408 -474,-2088 -285,-680 -664,-1328 -1155,-1818l-5954 -5955 720 -719 -696 -696 -720 719 -19112 -19112c-490,-490 -1123,-870 -1819,-1154 -680,-285 -1407,-459 -2087,-475l-20718 0 0 -1012 -980 0 0 1012 -17250 0 65 1487 38883 0c411,0 980,126 1518,348 538,221 1044,537 1328,822l0 0 25763 25763c285,284 601,790 822,1328 222,538 364,1123 348,1518l0 10865c0,680 190,1408 475,2088 284,680 664,1328 1154,1818l27898 27898c284,284 601,790 822,1328 221,538 364,1123 348,1518l0 37482 1486 0 32 31z"/>
  <path class="fil3" d="M199884 100773l-45499 0c-680,0 -1408,190 -2088,475 -680,284 -1328,664 -1818,1154l-32 -31 32 15 -17318 17318c-284,284 -791,601 -1328,822 -538,221 -1123,364 -1518,348l-33164 0c-1107,0 -2104,-443 -2831,-1170 -728,-728 -1170,-1724 -1170,-2831l0 -8208c0,-680 -190,-1408 -475,-2088 -285,-680 -664,-1328 -1154,-1818l0 0 -36137 -35963 0 0c-285,-285 -601,-791 -823,-1329 -221,-538 -363,-1123 -348,-1518l0 -53454c0,-680 -189,-1408 -474,-2088 -285,-680 -664,-1328 -1155,-1819l-6721 -6721 696 -696 -696 -696 -696 696 -1249 -1249 -2104 0 9727 9726c284,285 601,791 822,1328 221,538 364,1123 348,1519l0 53454c0,680 190,1407 474,2087 285,681 665,1329 1155,1819l0 0 36137 35963 0 0c285,285 601,791 822,1329 222,537 364,1122 348,1518l0 8208c0,3020 2452,5472 5472,5488l33164 0c680,0 1407,-190 2087,-475 681,-285 1329,-664 1819,-1154l17317 -17317 32 31c285,-285 791,-601 1329,-822 537,-222 1122,-364 1534,-348l45499 0 0 -1487 -16 -16z"/>
  <path class="fil0" d="M58404 130157l0 -60919c0,-411 127,-980 348,-1518 222,-538 538,-1044 823,-1328l0 0 52900 -52901 0 0c285,-285 791,-601 1329,-822 538,-222 1123,-364 1518,-348l46591 0c680,0 1407,-190 2087,-475 680,-284 1329,-664 1819,-1154l7654 -7655c491,-490 870,-1123 1155,-1818 174,-412 300,-854 379,-1281l-1518 0c-63,237 -142,474 -237,711 -221,538 -538,1044 -822,1329l-7655 7654c-284,285 -791,601 -1328,822 -538,222 -1123,364 -1519,348l-46590 0c-680,0 -1408,190 -2088,475 -680,285 -1328,664 -1818,1154l0 0 -52901 52901 0 0c-490,490 -870,1123 -1155,1819 -284,680 -458,1407 -474,2087l0 57155 -996 0 0 981 996 0 0 2783 1486 0 16 0z"/>
  <path class="fil4" d="M199884 32089l-3337 0c-680,0 -1407,190 -2087,475 -680,284 -1329,664 -1819,1154l-28815 28815c-284,285 -790,601 -1328,822 -538,222 -1123,364 -1518,348l-17776 0c-412,0 -981,-126 -1534,-348 -538,-221 -1044,-537 -1329,-822l-4713 -4713 712 -712 -696 -695 -711 711 -2025 -2024c-490,-490 -1123,-870 -1818,-1155 -681,-284 -1408,-458 -2088,-474l-901 0 0 -981 -981 0 0 981 -93830 0 0 -981 -996 0 0 981 -32247 0 0 1487 21683 0 0 1012 980 0 0 -1012 18583 0 0 1012 980 0 0 -1012 86729 0c411,0 980,126 1518,347 538,222 1044,538 1329,823l7433 7433c490,490 1122,870 1818,1154 680,285 1408,459 2104,475l17776 0c680,0 1407,-190 2087,-475 680,-284 1329,-664 1819,-1154l28815 -28815c284,-285 790,-601 1328,-822 538,-222 1123,-364 1518,-348l3337 0 0 -1487z"/>
  <path class="fil2" d="M98938 14044l-9505 -9504c-490,-491 -1123,-870 -1819,-1155 -680,-284 -1407,-458 -2087,-474l-62342 0 0 -997 -981 0 0 997 -17934 0 0 -997 -981 0 0 997 -3242 0 0 506 85480 0c585,0 1265,158 1898,427 632,269 1233,632 1644,1044l9497 9497 372 -372 0 31zm-98891 -10137l0 490 85480 0c395,0 980,127 1518,348 538,222 1044,538 1329,823l9504 9504 340 -340 -9497 -9496c-348,-348 -901,-696 -1486,-933 -585,-254 -1218,-396 -1708,-396l-85480 0z"/>
  <path class="fil5" d="M35615 -62l22853 22852c490,490 1122,870 1818,1155 680,284 1408,458 2088,474l1834 0 42859 0 0 1012 980 0 0 -1012 21951 0c696,0 1344,269 1835,759l13955 13943 -702 702 695 696 703 -703 2856 2853c1328,1329 3115,2072 4997,2072l33496 0c696,0 1345,269 1835,759 490,490 759,1139 759,1835l0 16115 -1012 0 0 981 1755 0 0 -712 743 0 0 -16384c0,-1091 -426,-2119 -1201,-2894 -775,-775 -1803,-1202 -2895,-1202l-33495 0c-1487,0 -2879,-585 -3938,-1629l-17500 -17484 8 -7c-766,-767 -1780,-1193 -2858,-1202l-36 0 -16 0 -52900 0 0 -997 -981 0 0 997 -11893 0 -1850 0c-411,0 -981,-127 -1518,-348 -538,-222 -1044,-538 -1329,-823l-21808 -21808 -2104 0 16 0z"/>
  <path class="fil6" d="M199884 68163l-6009 6010c-1060,1059 -2452,1629 -3938,1629l-36976 0c-1091,0 -2119,427 -2894,1201l-9204 9205 -712 -712 -695 680 719 720 -10651 10651c-744,743 -1756,1202 -2894,1202l-11308 0 0 -1028 -980 0 0 1028 -46591 0 0 -1028 -981 0 0 1028 -48282 0 0 -1028 -981 0 0 1028 -10886 0c45,-42 89,-84 132,-127l0 0c459,-458 854,-1059 1154,-1723 285,-680 475,-1424 475,-2214l0 -24719 1012 0 0 -981 -1012 0 0 -29146 1012 0 0 -981 -1012 0 0 -7907c0,-1503 585,-2879 1629,-3938 1059,-1060 2451,-1629 3938,-1629l12588 0 0 -1487 -12588 0c-1882,0 -3669,743 -4998,2072 -1328,1328 -2072,3115 -2072,4997l0 63734c0,554 -126,1107 -363,1629 -222,506 -538,965 -838,1265l0 0c-317,317 -760,617 -1266,839 -333,145 -693,257 -1058,316l-1044 0c-868,-76 -1653,-421 -2278,-949l0 617 0 332 0 680 0 126 0 32 0 649 0 980c708,-598 1621,-961 2627,-965l7 0 7 0 0 -15 110 0 0 47 32 -32c134,0 267,-5 398,-15l39123 0 0 996 981 0 0 -996 83313 0c1534,0 2941,-633 3938,-1629l20543 -20544c490,-490 1139,-759 1835,-759l36975 0c1882,0 3669,-743 4997,-2072l4966 -4966 0 -2103z"/>
  <path class="fil7" d="M32 22932l107035 0 0 1013 980 0 0 -1013 21951 0c1139,0 2151,459 2894,1202l0 0 13947 13935 -710 710 696 696 711 -711 2863 2862 0 0c1013,1012 2404,1629 3938,1629l33496 0c1139,0 2151,458 2894,1201 744,744 1202,1756 1202,2895l0 16099 -1028 0 0 981 1028 0 0 5788c0,1139 -458,2151 -1202,2894l0 0c-743,743 -1755,1202 -2894,1202l-34872 0c-1534,0 -2941,633 -3937,1629l0 0 -9209 9209 -707 -717 -696 696 712 712 -10644 10643c-490,491 -1139,760 -1834,760l-11324 0 0 -1013 -980 0 0 1013 -46591 0 0 -1013 -981 0 0 1013 -48282 0 0 -1013 -981 0 0 1013 -3527 0c-1138,0 -2151,-459 -2894,-1202 -806,-807 -1202,-1835 -1202,-2894l0 -23185 997 0 0 -981 -997 0 0 -29146 997 0 0 -981 -997 0 0 -7939c0,-1139 459,-2151 1202,-2894l0 0c743,-743 1756,-1202 2894,-1202l12668 0 0 -1487 -12668 0c-1534,0 -2941,633 -3938,1629l0 0c-1012,1012 -1629,2404 -1629,3938l0 62232c0,1423 554,2862 1629,3938 1013,1012 2404,1629 3938,1629l28356 0 0 1043 981 0 0 -1043 83329 0c1091,0 2119,-427 2894,-1202l20543 -20544 0 0c743,-743 1756,-1202 2894,-1202l34872 0c1534,0 2942,-617 3938,-1629l0 0c1012,-1012 1629,-2404 1629,-3938l0 -22868c0,-1534 -633,-2942 -1629,-3938 -1012,-1012 -2404,-1629 -3938,-1629l-33496 0c-1138,0 -2151,-458 -2894,-1202l-17507 -17491 0 0c-1012,-1012 -2404,-1629 -3938,-1629l-52932 0 0 -996 -981 0 0 996 -76054 0 0 1487 -15 15z"/>
  <path class="fil8" d="M32 21446l107035 0 0 1012 980 0 0 -1012 21951 0c1487,0 2894,569 3938,1629l13949 13948 -696 696 696 696 696 -696 2862 2863 0 0c775,775 1803,1202 2894,1202l33496 0c1503,0 2879,585 3938,1629l0 0c1060,1059 1629,2451 1629,3938 0,1834 0,10279 0,10279 0,1424 554,2863 1629,3938l0 0 1692 1692 0 0c538,538 1028,997 1613,1313 459,253 965,411 1534,459l0 -1503c-316,-47 -569,-142 -822,-269 -380,-205 -775,-553 -1281,-1059l0 0 -1692 -1692 0 0c-807,-807 -1202,-1851 -1202,-2895 0,0 0,-8445 0,-10279 0,-1882 -743,-3669 -2072,-4998l0 0c-1328,-1328 -3115,-2071 -4997,-2071l-33496 0c-696,0 -1345,-269 -1835,-760l0 0 -17507 -17507c-1328,-1328 -3115,-2071 -4997,-2071l-52885 0 0 -981 -981 0 0 981 -76101 0 0 1486 32 32z"/>
  <path class="fil9" d="M132418 130157l22789 -22789c490,-490 870,-1123 1155,-1819 284,-680 458,-1407 474,-2087l0 -80941c0,-1534 -633,-2941 -1629,-3938l0 0c-1012,-1012 -2404,-1629 -3938,-1629l-25572 0 0 -4096 -2230 0 0 4096 -8335 0c-1107,0 -2103,-442 -2846,-1170 -728,-727 -1171,-1724 -1171,-2847l0 -12999 -1486 0 0 12999c0,3037 2467,5504 5503,5504l8335 0 0 3954 2230 0 0 -3954 17111 0 0 1012 981 0 0 -1012 7480 0c1139,0 2151,459 2894,1202l0 0c744,743 1202,1755 1202,2894l0 80941c0,411 -126,980 -348,1518 -221,538 -537,1044 -822,1328l-23833 23833 2103 0 -47 0zm-37133 -82980l996 0 0 82996 1487 0 15 -16 0 -105517c0,-411 127,-980 348,-1518 222,-537 538,-1044 823,-1328l4554 -4555c475,-474 854,-1107 1155,-1771 285,-664 474,-1360 474,-2040l0 -13475 -1486 0 0 13475c0,364 -127,933 -348,1455 -222,522 -538,1012 -838,1312l-4555 4555c-490,490 -870,1123 -1155,1819 -284,680 -458,1407 -474,2087l0 21540 -996 0 0 981z"/>
  <path class="fil10" d="M141274 -62l-25414 25414c-491,490 -870,1123 -1155,1819 -284,680 -458,1407 -474,2087l0 9964 -997 0 0 980 997 0 0 7924c0,411 -127,980 -348,1518 -221,537 -538,1044 -822,1328l-19263 19263c-285,284 -791,601 -1328,822 -538,222 -1123,364 -1519,348l-35109 0c-680,0 -1407,190 -2087,474 -680,285 -1329,665 -1819,1155l-4958 4958 -704 -704 -696 696 704 704 -5222 5222 -716 -707 -680 696 703 703 -9149 9149c-284,285 -790,601 -1328,823 -538,221 -1123,364 -1518,348l-9884 0 0 -997 -981 0 0 997 -17460 0 0 1486 28325 0c680,0 1407,-189 2087,-474 681,-285 1329,-664 1819,-1155l20718 -20717c284,-285 790,-601 1328,-822 538,-222 1123,-364 1518,-348l35109 0c680,0 1408,-190 2088,-475 680,-284 1328,-664 1819,-1154l8650 -8651 728 727 696 -680 -731 -740 9919 -9919c490,-490 870,-1123 1155,-1819 284,-680 458,-1407 474,-2087l0 -18867c0,-411 127,-981 348,-1518 221,-538 538,-1044 822,-1329l26459 -26458 -2104 0 0 16zm-48868 111748c1234,0 2230,996 2230,2229 0,1234 -996,2230 -2230,2230 -1233,0 -2230,-996 -2230,-2230 0,-1233 997,-2229 2230,-2229z"/>
  <path class="fil11 str0" d="M190474 79850l-3352 -3353c268,-664 126,-1455 -412,-1992 -727,-728 -1913,-728 -2641,0 -727,727 -727,1913 0,2641 538,538 1329,680 1993,411l3353 3353c-269,664 -127,1455 411,1992 727,728 1913,728 2641,0 727,-727 727,-1913 0,-2641 -538,-537 -1328,-680 -1993,-411z"/>
  <path class="fil11 str0" d="M101516 112065c-759,0 -1424,459 -1708,1123l-1060 0c-285,-664 -949,-1123 -1708,-1123 -759,0 -1423,459 -1708,1123l-1233 0c-285,-664 -949,-1123 -1709,-1123 -1028,0 -1866,838 -1866,1866 0,1028 838,1866 1866,1866 760,0 1424,-458 1709,-1122l1233 0c285,664 949,1122 1708,1122 759,0 1423,-458 1708,-1122l1060 0c284,664 949,1122 1708,1122 1028,0 1866,-838 1866,-1866 0,-1028 -838,-1866 -1866,-1866z"/>
  <path class="fil11 str0" d="M163700 74489c-522,-554 -1297,-727 -1977,-506l-3954 -3906 0 0 1708 0c285,664 949,1122 1708,1122 1028,0 1851,-838 1851,-1850 0,-1028 -839,-1850 -1851,-1850 -759,0 -1407,458 -1692,1107l-1708 0c-79,-190 -190,-364 -332,-522 -506,-554 -1297,-728 -1977,-506l-2420 -2451c285,-649 190,-1440 -332,-2009 -696,-759 -1866,-806 -2625,-111 -759,696 -807,1866 -111,2626 522,553 1297,727 1977,506l2420 2451c-285,648 -190,1455 332,2008 506,554 1297,728 1977,507l3953 3906c-284,648 -189,1455 333,2008 695,759 1866,807 2625,111 759,-696 806,-1866 111,-2625l-16 -16z"/>
  <path class="fil11 str0" d="M36880 16606c0,1028 -838,1867 -1866,1867 -1028,0 -1866,-839 -1866,-1867 0,-1027 838,-1866 1866,-1866 1028,0 1866,839 1866,1866z"/>
  <path class="fil11 str1" d="M98764 99429c269,-664 126,-1455 -411,-1993 -728,-727 -1914,-727 -2641,0 -728,728 -728,1914 0,2641 537,538 1328,680 1992,412l1977 1976c-269,665 -126,1455 411,1993 728,728 1914,728 2641,0 728,-727 728,-1913 0,-2625 -537,-538 -1328,-680 -1992,-411l-1977 -1993z"/>
  <path class="fil11 str0" d="M180416 45959l0 -1629c712,-301 1218,-996 1218,-1803 0,-1075 -870,-1961 -1961,-1961 -1076,0 -1961,870 -1961,1961 0,822 506,1518 1217,1803l0 1629c-664,285 -1122,949 -1122,1708 0,1028 838,1866 1866,1866 1028,0 1866,-838 1866,-1866 0,-759 -459,-1423 -1123,-1708z"/>
  <path class="fil11 str1" d="M57943 23174c680,225 1460,32 1962,-539 680,-772 604,-1956 -169,-2635 -773,-680 -1957,-603 -2636,169 -502,571 -593,1370 -282,2015l-2894 3293c-681,-226 -1460,-33 -1963,538 -679,773 -603,1956 170,2636 773,679 1956,603 2620,-169 502,-571 593,-1369 282,-2015l2910 -3293z"/>
  <path class="fil11 str0" d="M110514 12526c-759,0 -1423,459 -1708,1123l-2720 0c-285,-664 -949,-1123 -1708,-1123 -759,0 -1423,459 -1708,1123l-2831 0c-284,-664 -949,-1123 -1708,-1123 -1028,0 -1866,838 -1866,1866 0,1028 838,1867 1866,1867 759,0 1424,-459 1708,-1123l2831 0c285,664 949,1123 1708,1123 759,0 1423,-459 1708,-1123l2736 0c285,664 949,1123 1708,1123 1028,0 1866,-839 1866,-1867 0,-1028 -838,-1866 -1866,-1866l-16 0z"/>
  <path class="fil11 str0" d="M1929 97389l0 379c-664,285 -1122,949 -1122,1708 0,1028 838,1867 1866,1867 1028,0 1866,-839 1866,-1867 0,-759 -459,-1423 -1123,-1708l0 -379c664,-285 1123,-949 1123,-1708 0,-1028 -838,-1866 -1866,-1866 -1028,0 -1866,838 -1866,1866 0,759 458,1423 1122,1708z"/>
  <path class="fil11 str0" d="M25249 97389l0 379c-664,285 -1122,949 -1122,1708 0,1028 838,1867 1866,1867 1028,0 1866,-839 1866,-1867 0,-759 -459,-1423 -1123,-1708l0 -379c664,-285 1123,-949 1123,-1708 0,-1028 -838,-1866 -1866,-1866 -1028,0 -1866,838 -1866,1866 0,759 458,1423 1122,1708z"/>
  <path class="fil11 str0" d="M25889 23225l0 379c-664,285 -1123,949 -1123,1709 0,1028 838,1866 1866,1866 1028,0 1866,-838 1866,-1866 0,-760 -458,-1424 -1122,-1709l0 -379c664,-285 1122,-949 1122,-1708 0,-1028 -838,-1866 -1866,-1866 -1028,0 -1866,838 -1866,1866 0,759 459,1423 1123,1708z"/>
  <path class="fil11 str0" d="M55305 54214c0,1028 -839,1866 -1867,1866 -1028,0 -1866,-838 -1866,-1866 0,-1028 838,-1866 1866,-1866 1028,0 1867,838 1867,1866z"/>
  <path class="fil11 str0" d="M10232 54214c0,1028 -838,1866 -1866,1866 -1028,0 -1866,-838 -1866,-1866 0,-1028 838,-1866 1866,-1866 1028,0 1866,838 1866,1866z"/>
  <path class="fil11 str0" d="M72574 54214c0,1028 -838,1866 -1866,1866 -1028,0 -1866,-838 -1866,-1866 0,-1028 838,-1866 1866,-1866 1028,0 1866,838 1866,1866z"/>
  <path class="fil11 str0" d="M98922 54214c0,1028 -838,1866 -1866,1866 -1028,0 -1866,-838 -1866,-1866 0,-1028 838,-1866 1866,-1866 1028,0 1866,838 1866,1866z"/>
  <path class="fil11 str0" d="M112744 54214c0,1028 -838,1866 -1866,1866 -1028,0 -1866,-838 -1866,-1866 0,-1028 838,-1866 1866,-1866 1028,0 1866,838 1866,1866z"/>
  <path class="fil11 str0" d="M98906 27883c0,1028 -838,1866 -1866,1866 -1028,0 -1866,-838 -1866,-1866 0,-1028 838,-1867 1866,-1867 1028,0 1866,839 1866,1867z"/>
  <path class="fil11 str0" d="M98906 68068c0,1028 -838,1866 -1866,1866 -1028,0 -1866,-838 -1866,-1866 0,-1028 838,-1866 1866,-1866 1028,0 1866,838 1866,1866z"/>
  <path class="fil11 str0" d="M84768 72180c0,1028 -839,1866 -1867,1866 -1027,0 -1866,-838 -1866,-1866 0,-1028 839,-1866 1866,-1866 1028,0 1867,838 1867,1866z"/>
  <path class="fil11 str0" d="M59527 72180c0,1028 -838,1866 -1866,1866 -1028,0 -1866,-838 -1866,-1866 0,-1028 838,-1866 1866,-1866 1028,0 1866,838 1866,1866z"/>
  <path class="fil11 str0" d="M59527 98749c0,1028 -838,1866 -1866,1866 -1028,0 -1866,-838 -1866,-1866 0,-1028 838,-1866 1866,-1866 1028,0 1866,838 1866,1866z"/>
  <path class="fil11 str0" d="M82142 94669c0,1028 -838,1866 -1866,1866 -1028,0 -1866,-838 -1866,-1866 0,-1028 838,-1866 1866,-1866 1028,0 1866,838 1866,1866z"/>
  <path class="fil11 str0" d="M82142 98733c0,1028 -838,1866 -1866,1866 -1028,0 -1866,-838 -1866,-1866 0,-1028 838,-1866 1866,-1866 1028,0 1866,838 1866,1866z"/>
  <path class="fil11 str0" d="M98906 86318c0,1028 -838,1867 -1866,1867 -1028,0 -1866,-839 -1866,-1867 0,-1028 838,-1866 1866,-1866 1028,0 1866,838 1866,1866z"/>
  <path class="fil11 str0" d="M116714 121633c0,1028 -838,1866 -1866,1866 -1028,0 -1867,-838 -1867,-1866 0,-1028 839,-1866 1867,-1866 1028,0 1866,838 1866,1866z"/>
  <path class="fil11 str0" d="M137083 91869c0,1028 -838,1867 -1866,1867 -1028,0 -1866,-839 -1866,-1867 0,-1028 838,-1866 1866,-1866 1028,0 1866,838 1866,1866z"/>
  <path class="fil11 str0" d="M148154 80783c0,1028 -838,1866 -1866,1866 -1028,0 -1866,-838 -1866,-1866 0,-1028 838,-1866 1866,-1866 1028,0 1866,838 1866,1866z"/>
  <path class="fil11 str0" d="M157927 101517c0,1028 -838,1866 -1866,1866 -1028,0 -1866,-838 -1866,-1866 0,-1028 838,-1867 1866,-1867 1028,0 1866,839 1866,1867z"/>
  <path class="fil11 str0" d="M187296 101548c0,1028 -839,1866 -1867,1866 -1027,0 -1866,-838 -1866,-1866 0,-1028 839,-1866 1866,-1866 1028,0 1867,838 1867,1866z"/>
  <path class="fil11 str0" d="M157927 42527c0,1028 -838,1866 -1866,1866 -1028,0 -1866,-838 -1866,-1866 0,-1028 838,-1866 1866,-1866 1028,0 1866,838 1866,1866z"/>
  <path class="fil11 str0" d="M141480 29812c0,1028 -838,1866 -1866,1866 -1028,0 -1866,-838 -1866,-1866 0,-1028 838,-1866 1866,-1866 1028,0 1866,838 1866,1866z"/>
  <path class="fil11 str0" d="M157935 26356c0,1028 -838,1867 -1866,1867 -1028,0 -1866,-839 -1866,-1867 0,-1028 838,-1866 1866,-1866 1028,0 1866,838 1866,1866z"/>
  <path class="fil11 str0" d="M153989 16512c0,1028 -838,1866 -1866,1866 -1028,0 -1866,-838 -1866,-1866 0,-1028 838,-1867 1866,-1867 1028,0 1866,839 1866,1867z"/>
  <path class="fil11 str0" d="M122694 11527c0,760 459,1424 1123,1708l0 2764c-664,285 -1123,949 -1123,1708 0,759 459,1423 1123,1708l0 1032c-664,284 -1123,948 -1123,1708 0,1028 839,1866 1866,1866 1028,0 1867,-838 1867,-1866 0,-760 -459,-1424 -1123,-1708l0 -1032c664,-285 1123,-949 1123,-1708 0,-759 -459,-1423 -1123,-1708l0 -2779c664,-285 1123,-949 1123,-1708 0,-1028 -839,-1866 -1867,-1866 -1027,0 -1866,838 -1866,1866l0 15z"/>
  <rect class="fil12" x="114342" y="97721" width="981" height="1028"/>
  <polygon class="fil13" points="140175,86896 140863,86208 140288,85633 139600,86321 "/>
  <rect class="fil13" x="66770" y="97721" width="981" height="1028"/>
  <rect class="fil13" x="17507" y="97721" width="981" height="1028"/>
  <polygon class="fil14" points="2459,18544 1221,19393 2594,20766 2605,22163 3621,23366 5227,23399 6958,23043 6041,22126 5928,20521 4442,19594 3224,19505 "/>
  <circle class="fil14" cx="9891" cy="27122" r="1667"/>
  <path class="fil15" d="M130 18867l-130 33 0 -825 16 -4 43 -18 258 -129 2746 2746 -99 246c-107,263 -131,552 -74,827 55,268 188,525 397,734l0 -1c210,209 466,342 733,397 276,57 566,33 829,-73l245 -99 3568 3568 -100 245c-106,264 -130,552 -74,827 55,268 189,524 398,733l-1 1c286,285 662,428 1039,428 376,0 752,-142 1038,-427l0 -2 12 -11 -1 0c278,-285 417,-656 417,-1025l2 0c0,-323 -108,-645 -323,-906l-6 0 -117 -118c-209,-209 -466,-342 -733,-397 -275,-57 -564,-33 -827,74l-246 99 -3568 -3568 99 -246c107,-263 131,-552 74,-827 -55,-267 -188,-524 -398,-733 -209,-210 -465,-343 -732,-398 -276,-56 -564,-32 -828,74l-245 100 -2731 -2731 100 -245c106,-264 130,-552 74,-828 -55,-267 -188,-523 -398,-732 -97,-97 -196,-176 -298,-236 -91,-53 -187,-95 -289,-125l0 -826 165 44c184,48 360,122 527,220 167,98 321,217 461,357 321,322 526,720 613,1139 70,340 61,692 -29,1028l2009 2009c336,-90 688,-99 1028,-29 419,87 817,292 1139,614 321,321 526,719 613,1138 70,340 61,693 -28,1028l2847 2847c335,-89 688,-98 1027,-28 366,75 716,241 1013,496l22 0c22,21 115,121 134,131 431,431 647,1002 647,1575l2 0c0,571 -215,1144 -645,1584l-2 0 -16 18 -2 0c-441,441 -1022,662 -1601,662 -580,0 -1160,-221 -1602,-662l-1 0c-322,-322 -527,-720 -614,-1139 -70,-340 -61,-693 29,-1028l-2848 -2847c-335,89 -688,98 -1027,28 -419,-86 -818,-291 -1139,-613l0 -1c-322,-322 -527,-720 -613,-1138 -70,-339 -61,-692 28,-1027l-2007 -2008z"/>
  <rect class="fil16" x="76101" y="21920" width="981" height="1347"/>
  <rect class="fil17" x="76101" y="20434" width="981" height="1487"/>
  <rect class="fil13" x="8382" y="38858" width="1012" height="981"/>
  <rect class="fil13" x="8382" y="68985" width="1012" height="981"/>
  <rect class="fil18" x="17507" y="96234" width="981" height="1012"/>
 </g>
</svg>
